<?xml version="1.0" standalone="no"?>
<!DOCTYPE svg PUBLIC "-//W3C//DTD SVG 20010904//EN"
 "http://www.w3.org/TR/2001/REC-SVG-20010904/DTD/svg10.dtd">
<svg version="1.0" xmlns="http://www.w3.org/2000/svg"
 width="128.000000pt" height="128.000000pt" viewBox="0 0 128.000000 128.000000"
 preserveAspectRatio="xMidYMid meet">
<metadata>
Created by potrace 1.11, written by Peter Selinger 2001-2013
</metadata>
<g transform="translate(0.000000,128.000000) scale(0.100000,-0.100000)"
fill="#000000" stroke="none">
<path d="M714 1201 c-26 -12 -49 -34 -68 -64 -16 -26 -32 -44 -37 -41 -5 3 -6
-2 -3 -11 4 -9 -1 -24 -10 -34 -9 -10 -13 -21 -9 -24 3 -4 1 -7 -5 -7 -21 0
-24 21 -6 36 11 9 14 13 8 10 -14 -7 -26 32 -12 40 14 9 -22 44 -47 44 -65 0
-299 -112 -262 -125 9 -4 14 -12 11 -19 -3 -6 1 -4 8 5 12 15 18 15 46 3 18
-7 30 -9 27 -4 -7 11 51 7 63 -4 4 -4 -2 -14 -12 -22 -11 -8 -16 -14 -11 -14
9 0 -67 -57 -100 -76 -11 -6 -37 -21 -58 -32 -20 -12 -60 -33 -88 -47 -42 -22
-48 -29 -39 -41 10 -11 10 -14 0 -14 -7 0 -2 -18 14 -46 14 -25 24 -50 21 -54
-2 -4 7 -6 20 -4 14 1 25 -2 25 -7 0 -6 5 -7 10 -4 6 3 10 2 10 -4 0 -5 14 -8
30 -6 22 3 29 1 24 -8 -5 -9 -4 -9 6 0 9 8 19 9 32 2 10 -5 18 -7 18 -3 0 3 8
0 18 -7 15 -13 16 -12 3 4 -15 20 -9 22 21 6 13 -7 18 -7 14 -1 -3 6 -2 13 4
17 10 6 15 -9 10 -30 -1 -5 -4 -26 -6 -45 -2 -19 -7 -51 -10 -70 -4 -19 -8
-51 -9 -70 -2 -19 -4 -39 -4 -43 -1 -5 -7 -5 -13 -1 -10 5 -10 4 -2 -5 8 -9 7
-30 -4 -78 -19 -86 -47 -133 -77 -133 -25 0 -55 -33 -55 -61 0 -12 7 -15 24
-12 13 3 34 0 46 -7 15 -8 20 -8 16 -1 -9 14 0 14 26 0 14 -8 18 -8 14 0 -8
12 43 9 64 -4 9 -6 11 -4 5 5 -5 9 -2 10 12 6 27 -9 49 26 52 83 2 51 8 64 23
55 7 -4 8 -2 4 5 -4 6 -12 9 -17 6 -5 -4 -9 -1 -9 4 0 16 26 13 44 -5 9 -8 16
-12 16 -8 0 3 6 2 13 -3 6 -5 19 -9 27 -8 8 0 21 -6 28 -15 8 -8 11 -10 8 -3
-4 8 7 11 36 10 31 -2 43 -7 43 -17 0 -8 5 -19 10 -23 6 -4 -1 -5 -15 -2 -14
3 -40 7 -58 9 -19 1 -38 9 -44 17 -8 12 -9 12 -5 -1 2 -8 -7 -23 -20 -33 -15
-12 -23 -29 -23 -49 0 -17 3 -28 6 -25 4 3 16 2 27 -4 10 -6 17 -7 14 -2 -4 6
15 9 44 9 29 -1 53 -7 58 -15 7 -10 9 -10 14 2 7 18 35 16 49 -4 8 -12 9 -11
5 2 -4 12 1 15 22 14 15 -1 33 -5 41 -10 8 -5 11 -4 7 2 -4 7 11 10 44 9 28
-1 54 -8 58 -15 6 -10 10 -9 15 4 6 16 8 16 34 -1 22 -14 25 -15 14 -1 -12 14
-10 15 10 13 13 -1 30 -6 37 -11 9 -5 12 -4 8 2 -4 5 1 19 11 29 9 10 19 28
20 39 2 11 8 21 12 23 5 2 6 10 3 19 -4 9 -2 14 3 11 5 -3 10 12 11 34 0 22 6
45 11 50 6 6 8 17 5 26 -4 9 -2 13 4 9 6 -4 9 7 8 28 -2 19 2 35 7 35 5 0 6 5
3 10 -3 6 -3 15 1 22 4 6 9 34 10 61 1 28 8 54 16 58 11 7 11 9 -1 9 -9 0 -11
6 -6 17 4 10 9 62 12 116 5 82 3 97 -10 97 -15 0 -37 -44 -43 -89 -1 -13 -6
-31 -10 -40 -4 -9 -8 -18 -8 -21 -18 -74 -41 -140 -49 -140 -6 0 -7 -3 -4 -7
4 -3 2 -12 -4 -20 -6 -7 -8 -13 -3 -13 5 0 5 -4 -1 -8 -5 -4 -18 -20 -27 -37
-9 -16 -21 -31 -26 -33 -14 -4 -53 39 -45 51 4 6 1 7 -6 3 -8 -5 -14 0 -18 13
-3 12 -9 21 -14 21 -5 0 -9 6 -9 14 0 7 -7 19 -15 26 -8 7 -12 16 -9 21 3 5 0
9 -5 9 -6 0 -11 6 -11 14 0 8 -9 31 -20 53 -37 73 -60 127 -60 140 0 7 -4 13
-10 13 -5 0 -10 5 -10 10 0 6 -9 29 -19 53 -11 23 -21 49 -22 57 -2 21 12 80
20 80 3 0 6 16 5 35 -1 21 3 35 10 35 7 0 6 4 -3 9 -9 6 -10 11 -3 15 6 4 8
14 5 23 -4 10 -2 14 4 10 7 -5 9 1 5 15 -3 14 -1 19 6 14 8 -5 10 -1 5 10 -5
13 -3 15 7 9 9 -5 11 -4 6 4 -4 6 0 25 8 43 9 17 14 33 12 35 -11 12 -48 9
-82 -6z m20 -843 c-5 -8 -2 -9 9 -5 9 3 19 2 22 -3 3 -4 -6 -7 -20 -6 -13 2
-33 -5 -44 -15 -11 -11 -28 -19 -38 -19 -15 1 -13 5 10 25 16 14 32 23 37 20
5 -3 11 -1 15 5 3 5 8 10 11 10 3 0 2 -5 -2 -12z m-58 -90 c-3 -18 -5 -37 -5
-41 -1 -5 -5 -5 -11 -2 -11 7 -14 58 -3 68 15 16 23 5 19 -25z"/>
<path d="M315 1000 c3 -5 8 -10 11 -10 2 0 4 5 4 10 0 6 -5 10 -11 10 -5 0 -7
-4 -4 -10z"/>
<path d="M255 80 c3 -5 8 -10 11 -10 2 0 4 5 4 10 0 6 -5 10 -11 10 -5 0 -7
-4 -4 -10z"/>
</g>
</svg>
