<?xml version="1.0" standalone="no"?>
<!DOCTYPE svg PUBLIC "-//W3C//DTD SVG 20010904//EN"
 "http://www.w3.org/TR/2001/REC-SVG-20010904/DTD/svg10.dtd">
<svg version="1.0" xmlns="http://www.w3.org/2000/svg"
 width="512.000000pt" height="512.000000pt" viewBox="0 0 512.000000 512.000000"
 preserveAspectRatio="xMidYMid meet">
<metadata>
Created by potrace 1.11, written by Peter Selinger 2001-2013
</metadata>
<g transform="translate(0.000000,512.000000) scale(0.100000,-0.100000)"
fill="#000000" stroke="none">
<path d="M1385 4378 c-292 -24 -530 -253 -563 -542 -9 -80 -7 -2252 2 -2334 6
-55 21 -113 43 -162 3 -8 7 -18 7 -21 1 -3 17 -30 36 -60 19 -30 36 -58 39
-63 2 -4 16 -20 31 -35 15 -14 30 -33 33 -41 4 -11 6 -12 6 -1 1 7 20 -6 44
-30 44 -46 91 -74 108 -63 5 3 8 0 7 -8 -2 -7 3 -12 10 -10 8 1 11 -2 7 -8 -3
-5 -1 -10 4 -10 6 0 11 6 11 13 0 8 4 7 10 -3 5 -8 10 -11 10 -6 0 5 6 3 13
-3 8 -6 16 -9 19 -6 3 3 11 -1 17 -9 7 -8 18 -13 25 -10 8 3 16 -2 20 -11 3
-9 2 -14 -3 -11 -4 3 -17 -1 -27 -9 -19 -15 -19 -15 0 -8 15 5 17 3 11 -8 -8
-12 -6 -12 8 -1 9 8 21 11 28 7 8 -6 8 -2 0 13 -14 26 -14 32 -1 32 5 0 9 -3
7 -8 -1 -4 8 -17 21 -30 12 -12 22 -17 22 -11 0 8 5 7 15 -1 9 -7 18 -10 22
-7 3 4 13 1 22 -6 14 -11 14 -10 2 6 -12 15 -11 17 7 17 16 0 20 -5 16 -24 -2
-14 0 -27 6 -31 6 -4 7 1 3 11 -5 13 -3 15 7 9 10 -6 11 -4 4 6 -5 8 -9 21 -9
29 0 8 -4 22 -9 30 -5 8 1 6 13 -5 26 -23 28 -23 48 2 14 17 14 17 5 -1 -14
-29 6 -70 25 -54 12 10 14 9 11 -4 -1 -9 1 -17 7 -17 5 -1 10 6 10 14 0 9 6
19 14 24 9 6 10 11 2 15 -6 4 -13 1 -16 -6 -3 -8 -15 -15 -27 -15 -18 -2 -15
2 11 18 32 19 34 19 48 2 13 -16 14 -16 9 -1 -3 10 0 20 7 24 7 4 9 4 5 -1 -4
-4 -3 -16 2 -26 7 -12 6 -20 -2 -25 -7 -5 -8 -3 -3 7 7 11 5 11 -10 -1 -17
-13 -18 -13 -10 0 5 9 5 12 -1 7 -5 -5 -9 -22 -10 -38 0 -16 2 -26 5 -23 6 5
7 9 10 35 0 5 5 8 10 4 5 -3 12 -1 16 5 4 6 11 7 17 4 7 -4 6 -9 -1 -14 -9 -5
-8 -10 1 -18 20 -16 18 29 -2 54 -8 10 -10 16 -6 12 5 -4 16 -2 24 5 10 8 13
8 9 1 -4 -7 0 -15 9 -18 11 -4 15 -2 11 7 -3 8 1 14 8 14 7 0 10 -9 8 -21 -4
-17 -3 -18 6 -6 8 12 11 12 11 1 0 -11 3 -11 17 0 11 10 14 10 9 2 -4 -8 -2
-13 5 -13 6 0 9 8 6 20 -3 11 -2 18 3 15 13 -8 18 -42 6 -42 -6 0 -19 -4 -28
-8 -10 -4 -18 -3 -18 2 0 5 -6 10 -12 10 -7 0 -20 3 -28 5 -8 3 -12 3 -9 1 4
-2 6 -12 4 -21 -1 -9 0 -11 2 -4 7 18 21 14 18 -5 -1 -10 0 -12 2 -5 3 6 9 12
14 12 6 0 7 -5 3 -11 -5 -8 -1 -8 14 0 15 8 22 8 25 -2 3 -7 6 -5 6 5 1 10 4
17 9 17 27 -4 32 2 22 24 -9 18 -9 20 2 7 19 -21 42 -25 34 -5 -3 9 -2 13 4
10 6 -3 10 -13 10 -21 0 -8 4 -13 9 -9 5 3 13 0 17 -6 5 -8 3 -9 -5 -4 -10 6
-11 3 -2 -14 14 -25 23 -28 14 -5 -5 14 -3 15 15 5 26 -14 29 -14 35 3 4 10 0
13 -16 10 -28 -5 -50 26 -35 47 8 11 9 11 5 -3 -7 -20 18 -45 28 -28 3 5 1 10
-6 10 -7 0 -10 3 -6 6 3 4 17 -3 31 -13 20 -16 23 -23 13 -34 -10 -11 -9 -11
5 -1 10 8 19 9 22 3 3 -5 1 -11 -6 -13 -7 -3 -2 -7 10 -10 23 -6 23 -6 7 18
-8 13 -12 24 -8 24 14 0 35 -17 33 -26 -1 -5 4 -10 12 -12 10 -3 10 -2 -1 6
-8 6 -10 12 -3 16 6 4 16 -2 22 -11 11 -17 11 -17 6 0 -3 11 0 17 10 17 8 0
13 -4 10 -8 -2 -4 4 -9 15 -9 18 -2 18 0 -3 17 -16 13 -27 15 -35 8 -9 -7 -13
-7 -13 0 0 14 28 23 35 11 4 -5 11 -7 16 -3 6 3 5 12 -3 22 -11 15 -11 15 3 5
9 -7 19 -10 22 -6 4 3 7 3 7 -2 0 -4 -7 -13 -17 -20 -14 -11 -13 -13 12 -19
20 -5 25 -10 16 -15 -7 -5 11 -8 41 -7 39 1 52 -2 50 -12 -1 -8 2 -11 8 -7 6
4 6 12 -2 24 -11 19 -58 24 -69 8 -4 -5 -10 -4 -13 2 -4 6 -2 11 3 11 6 0 11
5 11 11 0 8 -5 7 -15 -1 -9 -7 -18 -11 -20 -8 -3 2 8 14 24 26 l30 22 -5 -23
c-3 -17 1 -23 16 -23 15 0 19 5 15 21 -4 17 -3 17 6 -2 7 -13 16 -23 21 -23 5
0 3 10 -3 22 -6 13 -8 20 -4 16 5 -4 15 -2 24 5 14 11 15 10 1 -7 -13 -16 -12
-20 10 -38 14 -12 24 -25 23 -29 -2 -5 2 -9 7 -9 6 0 10 5 10 11 0 8 6 7 17
-2 15 -13 15 -12 4 10 -9 16 -16 20 -20 12 -5 -8 -13 -5 -26 9 -10 11 -15 23
-12 27 4 3 7 1 7 -7 0 -10 4 -10 18 1 15 13 16 12 3 -4 -12 -15 -12 -17 5 -14
11 2 27 7 36 11 9 4 22 5 28 1 5 -3 10 0 10 7 0 10 2 10 9 -1 11 -17 34 -4 27
15 -3 7 0 16 7 20 7 4 9 3 4 -1 -9 -11 21 -45 36 -41 7 2 9 1 4 -1 -4 -3 -5
-8 -2 -13 3 -5 -3 -7 -12 -5 -10 1 -17 8 -16 14 4 14 -14 15 -22 1 -3 -6 1
-13 10 -16 10 -4 12 -10 6 -18 -7 -8 -4 -12 8 -12 11 0 17 6 14 13 -3 8 2 11
16 8 11 -2 24 1 27 7 4 7 2 8 -4 4 -8 -5 -10 -1 -5 10 4 12 8 14 11 5 3 -9 11
-8 30 5 25 16 26 16 13 1 -8 -10 -9 -17 -3 -17 6 0 14 5 17 11 4 6 13 8 20 5
7 -2 18 1 24 7 8 8 20 2 46 -23 19 -18 31 -38 28 -44 -3 -6 0 -6 7 1 7 7 14
23 15 35 1 17 8 23 31 25 20 1 24 -1 15 -6 -8 -5 -21 -6 -30 -3 -13 5 -14 3
-4 -9 10 -12 10 -18 0 -29 -10 -12 -9 -12 4 -2 9 6 19 9 23 5 4 -4 4 0 1 8 -4
11 1 18 14 22 22 5 30 -8 9 -15 -7 -3 -5 -7 6 -11 10 -4 15 -3 11 3 -3 6 -1
10 5 10 8 0 8 6 0 21 -7 11 -9 23 -7 26 3 2 8 -5 12 -16 3 -12 11 -21 16 -21
6 0 7 5 4 10 -3 6 -2 10 4 10 5 0 13 -5 16 -10 5 -7 11 -8 18 -1 8 6 19 4 32
-5 19 -14 19 -15 -7 -10 -16 2 -28 1 -28 -3 0 -12 74 -9 82 3 5 7 8 6 8 -2 0
-7 4 -10 10 -7 5 3 10 1 10 -4 0 -6 8 -11 18 -10 10 0 12 3 4 6 -6 2 -10 9 -7
14 10 15 54 -21 48 -39 -4 -15 -3 -15 6 -2 9 12 5 20 -16 37 -17 14 -31 19
-38 13 -6 -5 -17 -5 -25 0 -8 5 -18 6 -22 4 -4 -3 -8 0 -8 5 0 14 27 14 35 1
5 -8 12 -7 23 2 12 10 16 10 19 1 3 -7 13 -13 24 -13 10 0 19 -5 19 -12 0 -9
3 -9 12 0 15 15 42 16 32 0 -4 -7 -3 -8 4 -4 7 4 12 1 12 -6 0 -10 3 -9 9 2
10 15 5 33 -8 26 -4 -3 -13 -1 -21 5 -11 6 -12 9 -2 9 7 0 11 4 8 8 -3 5 1 9
9 9 8 0 13 -3 10 -5 -6 -7 15 -32 27 -32 5 0 6 6 1 13 -11 18 -13 38 -2 31 5
-3 7 -9 4 -14 -3 -4 2 -13 9 -19 9 -8 17 -8 20 -2 3 5 0 12 -6 15 -7 3 -3 3 9
1 12 -3 24 -1 28 5 3 5 10 10 16 10 5 0 1 -8 -8 -19 -10 -10 -22 -18 -27 -17
-4 1 -10 -7 -11 -17 -2 -11 -1 -16 2 -13 4 3 12 1 20 -5 9 -9 13 -8 13 0 0 6
-5 11 -11 11 -5 0 -8 4 -5 9 8 13 39 7 44 -9 3 -8 0 -10 -8 -5 -9 5 -11 4 -6
-4 10 -15 29 -3 22 14 -3 8 2 19 11 27 14 11 15 10 9 -12 -4 -14 -4 -20 1 -15
11 14 47 19 38 6 -3 -6 -1 -11 5 -11 6 0 8 -5 4 -12 -4 -7 -3 -8 4 -4 6 4 8
14 5 23 -5 12 -3 14 8 8 10 -7 9 -1 -3 18 -10 14 -18 30 -18 34 0 4 4 2 9 -6
10 -16 41 -24 41 -11 0 5 -8 10 -17 12 -15 3 -15 5 3 10 17 4 21 1 20 -16 -1
-13 -7 -20 -16 -18 -12 3 -13 1 -2 -10 11 -11 16 -10 28 6 12 17 14 17 14 3 0
-9 -7 -20 -17 -25 -13 -8 -11 -9 11 -9 14 0 29 3 32 8 3 5 -2 6 -11 3 -11 -5
-14 -2 -9 9 3 9 12 13 21 10 12 -5 14 -3 8 7 -5 8 -4 11 3 6 6 -3 14 3 17 15
6 17 9 19 16 8 6 -10 9 -11 9 -1 0 6 5 12 11 12 8 0 8 -4 1 -12 -6 -7 -12 -17
-14 -23 -1 -5 -8 -9 -15 -9 -6 1 -14 -4 -16 -10 -3 -6 4 -12 14 -12 11 0 19 5
19 10 0 5 3 6 7 3 3 -4 12 -2 20 4 9 9 17 8 27 0 8 -6 19 -10 24 -9 6 2 18 -6
27 -17 9 -11 14 -14 10 -7 -3 6 -3 18 2 25 12 20 12 38 0 30 -16 -10 -97 -10
-97 -1 0 4 15 6 33 5 17 -2 38 1 45 6 6 5 12 6 12 1 0 -4 7 1 15 12 15 19 15
19 8 -1 -6 -18 -5 -18 10 -6 9 7 17 10 17 5 0 -4 6 0 13 11 11 14 16 15 22 5
5 -9 4 -11 -3 -6 -7 4 -12 3 -12 -2 0 -21 15 -21 39 0 14 13 20 16 13 7 -10
-13 -8 -16 18 -16 16 0 27 4 24 8 -2 4 1 11 7 15 8 4 9 3 5 -4 -9 -15 6 -16
21 -1 8 8 13 8 18 -1 5 -8 11 -6 21 7 13 17 14 17 7 -2 -6 -18 -5 -19 11 -6
11 9 20 11 27 4 6 -6 5 -10 -3 -10 -36 -1 -79 -35 -64 -50 3 -4 6 -1 6 6 0 10
41 33 65 35 6 1 9 12 7 26 -3 24 -3 24 11 5 8 -10 13 -25 10 -31 -2 -7 0 -15
6 -19 7 -4 8 1 4 12 -6 16 -5 16 10 4 9 -7 17 -10 17 -6 0 4 -10 15 -22 26
-14 10 -18 18 -10 19 7 0 10 5 6 12 -4 7 -3 8 5 4 6 -4 17 -3 24 2 13 11 17
12 42 12 8 0 14 6 12 13 -1 6 5 12 13 12 8 0 19 5 23 10 5 6 7 4 4 -5 -2 -8
-13 -14 -23 -12 -12 2 -15 0 -8 -5 19 -13 -14 -35 -53 -36 -7 0 -13 -4 -13 -9
0 -5 -5 -6 -12 -2 -7 4 -8 3 -4 -4 5 -9 13 -9 26 -2 26 14 30 13 23 -5 -3 -9
15 5 41 30 25 26 50 44 56 40 5 -3 10 -1 10 5 0 7 -7 10 -15 6 -8 -3 -15 -1
-15 4 0 6 7 10 16 10 8 0 12 4 9 10 -3 5 6 12 20 16 13 3 23 10 20 14 -3 5 4
11 15 15 11 3 19 9 18 13 -2 4 16 26 39 48 23 23 39 45 36 48 -4 3 -2 6 3 6 5
0 18 17 29 38 11 20 22 39 25 42 3 3 6 10 7 15 2 6 13 37 25 70 l23 60 0 1215
c0 1165 -1 1217 -19 1270 -84 245 -264 399 -511 437 -55 8 -2290 10 -2390 1z
m25 -3422 c1 18 1 18 11 0 9 -15 13 -16 20 -5 5 8 9 9 9 3 0 -6 -7 -17 -15
-24 -12 -10 -18 -10 -30 0 -8 7 -15 9 -15 5 0 -4 -7 -2 -15 5 -8 7 -12 17 -9
22 3 5 14 2 25 -8 18 -16 19 -16 19 2z m471 -3 c12 -16 12 -17 -2 -6 -9 7 -20
9 -24 5 -5 -4 -5 -1 -1 6 9 16 11 15 27 -5z m1526 -3 c-1 -11 -7 -22 -14 -24
-9 -4 -10 0 -1 19 14 30 17 31 15 5z m101 -5 c-3 -3 -9 2 -12 12 -6 14 -5 15
5 6 7 -7 10 -15 7 -18z m62 20 c0 -2 -10 -9 -22 -15 -22 -11 -22 -10 -4 4 21
17 26 19 26 11z m-1990 -20 c-14 -17 -30 -20 -30 -4 0 5 4 8 9 4 5 -3 12 -1
16 5 3 5 9 10 12 10 3 0 0 -7 -7 -15z m385 -5 c-3 -5 3 -13 12 -19 10 -6 13
-11 6 -11 -13 0 -26 17 -29 38 -1 6 2 10 7 6 5 -3 7 -9 4 -14z m45 6 c0 -2 -7
-7 -16 -10 -8 -3 -12 -2 -9 4 6 10 25 14 25 6z m477 -11 c0 -8 -4 -12 -9 -9
-5 3 -6 10 -3 15 9 13 12 11 12 -6z m178 -6 c-3 -12 -7 -24 -10 -27 -3 -3 -3
5 -1 19 6 30 5 29 10 29 3 0 3 -10 1 -21z m140 12 c3 -5 2 -12 -3 -15 -5 -3
-9 1 -9 9 0 17 3 19 12 6z m183 -16 c-3 -3 -9 2 -12 12 -6 14 -5 15 5 6 7 -7
10 -15 7 -18z m66 17 c3 -5 -1 -9 -9 -9 -8 0 -15 4 -15 9 0 4 4 8 9 8 6 0 12
-4 15 -8z m196 3 c0 -7 -30 -13 -34 -7 -3 4 4 9 15 9 10 1 19 0 19 -2z m-1185
-15 c-3 -5 -14 -10 -23 -9 -14 0 -13 2 3 9 27 11 27 11 20 0z m-30 -29 c-6 -5
-25 10 -25 20 0 5 6 4 14 -3 8 -7 12 -15 11 -17z m656 15 c-6 -7 -9 -21 -5
-30 6 -16 -11 -23 -20 -8 -5 9 20 52 31 52 3 0 0 -6 -6 -14z m205 -5 c1 -6 0
-7 -3 -1 -2 5 -9 8 -13 5 -5 -3 -11 -1 -14 4 -4 5 2 8 11 7 9 -2 18 -8 19 -15z
m119 10 c-3 -5 4 -13 16 -16 11 -4 18 -9 16 -12 -9 -8 -48 18 -42 28 4 5 8 9
11 9 3 0 3 -4 -1 -9z m263 -9 c21 -17 22 -18 3 -18 -11 0 -18 4 -15 8 2 4 -4
11 -13 17 -10 6 -13 10 -8 10 6 1 20 -7 33 -17z m-54 -5 c-3 -8 -12 -14 -21
-14 -13 0 -13 2 3 14 10 7 19 13 21 13 1 0 0 -6 -3 -13z m346 -3 c0 -8 -19
-13 -24 -6 -3 5 1 9 9 9 8 0 15 -2 15 -3z"/>
<path d="M975 1080 c3 -5 8 -10 11 -10 2 0 4 5 4 10 0 6 -5 10 -11 10 -5 0 -7
-4 -4 -10z"/>
<path d="M4130 1060 c0 -5 5 -10 11 -10 5 0 7 5 4 10 -3 6 -8 10 -11 10 -2 0
-4 -4 -4 -10z"/>
<path d="M1061 1036 c-9 -11 -9 -16 0 -22 7 -4 9 -3 5 4 -3 5 0 12 6 15 7 2
10 7 7 11 -3 4 -12 0 -18 -8z"/>
<path d="M1102 1013 c15 -14 15 -18 3 -27 -11 -8 -12 -15 -4 -26 9 -12 10 -12
5 4 -5 14 -2 17 9 12 9 -3 13 -2 10 4 -3 6 -2 10 3 10 6 0 13 7 16 16 5 14 4
15 -9 4 -12 -10 -16 -9 -21 4 -3 9 -11 16 -17 16 -6 0 -4 -8 5 -17z"/>
<path d="M4053 1017 c-4 -6 -1 -7 7 -2 10 6 12 4 7 -8 -9 -23 0 -22 12 1 8 14
6 19 -5 19 -8 0 -18 -5 -21 -10z"/>
<path d="M1033 1005 c0 -8 4 -12 9 -9 5 3 6 10 3 15 -9 13 -12 11 -12 -6z"/>
<path d="M4030 1011 c0 -7 -4 -9 -10 -6 -6 4 -7 -1 -3 -11 4 -10 2 -15 -3 -12
-5 4 -17 0 -27 -7 -16 -12 -16 -13 -1 -19 9 -4 19 -4 22 -1 3 3 0 5 -7 5 -7 0
-9 5 -6 10 4 6 10 8 15 5 10 -6 35 34 26 43 -3 3 -6 0 -6 -7z"/>
<path d="M1064 995 c-18 -14 -18 -14 4 -8 12 3 22 9 22 14 0 12 -3 11 -26 -6z"/>
<path d="M1154 999 c-5 -8 -3 -10 6 -4 10 6 12 4 7 -8 -4 -12 -2 -14 10 -10
11 4 14 2 9 -5 -5 -8 -2 -10 9 -6 11 5 14 2 9 -12 -4 -11 -4 -16 0 -13 11 10
16 50 5 43 -6 -3 -19 2 -29 11 -14 12 -20 13 -26 4z"/>
<path d="M4110 1001 c0 -6 4 -13 10 -16 6 -3 7 1 4 9 -7 18 -14 21 -14 7z"/>
<path d="M1230 969 c0 -13 6 -31 13 -40 11 -15 14 -14 29 6 15 20 16 25 3 35
-8 7 -15 9 -15 5 0 -4 -7 -2 -15 5 -13 10 -15 9 -15 -11z m49 -8 c2 -1 -2 -8
-9 -16 -11 -13 -15 -13 -21 -3 -16 25 -12 27 30 19z"/>
<path d="M4036 973 c-6 -14 -5 -15 5 -6 7 7 10 15 7 18 -3 3 -9 -2 -12 -12z"/>
<path d="M1141 964 c0 -11 3 -14 6 -6 3 7 2 16 -1 19 -3 4 -6 -2 -5 -13z"/>
<path d="M3748 946 c-10 -7 -14 -17 -10 -21 4 -5 -1 -5 -10 -2 -10 4 -18 2
-18 -3 0 -16 30 -11 36 5 4 8 10 13 14 10 5 -3 11 -1 14 4 10 16 -8 20 -26 7z"/>
<path d="M3920 951 c0 -6 4 -13 10 -16 6 -3 7 1 4 9 -7 18 -14 21 -14 7z"/>
<path d="M996 942 c-3 -5 1 -9 9 -9 8 0 12 4 9 9 -3 4 -7 8 -9 8 -2 0 -6 -4
-9 -8z"/>
<path d="M1175 939 c-4 -6 -5 -12 -2 -15 2 -3 7 2 10 11 7 17 1 20 -8 4z"/>
<path d="M3956 942 c-3 -4 4 -9 15 -9 23 -2 25 3 4 10 -8 4 -16 3 -19 -1z"/>
<path d="M4050 939 c0 -5 5 -7 10 -4 6 3 10 8 10 11 0 2 -4 4 -10 4 -5 0 -10
-5 -10 -11z"/>
<path d="M1135 929 c-4 -6 -5 -12 -2 -15 2 -3 7 2 10 11 7 17 1 20 -8 4z"/>
<path d="M1502 914 c6 -13 14 -21 19 -19 4 3 10 -3 12 -12 4 -17 5 -17 6 0 0
10 -6 20 -14 23 -8 4 -15 10 -15 16 0 5 6 6 13 2 6 -4 8 -3 4 1 -4 5 -14 10
-22 11 -11 2 -12 -3 -3 -22z"/>
<path d="M3599 937 c-1 -1 -3 -15 -4 -32 -3 -27 -2 -28 7 -8 10 21 11 21 36 5
15 -9 23 -11 19 -4 -5 6 -4 12 0 12 5 0 17 6 28 13 17 13 16 14 -5 12 -13 -1
-26 -7 -28 -13 -5 -15 -23 -16 -19 -1 1 9 -29 23 -34 16z"/>
<path d="M1193 913 c0 -9 4 -10 12 -3 7 5 15 7 18 3 4 -3 7 -1 7 5 0 6 -8 10
-18 9 -10 0 -19 -7 -19 -14z"/>
<path d="M3430 920 c0 -5 5 -10 11 -10 5 0 7 5 4 10 -3 6 -8 10 -11 10 -2 0
-4 -4 -4 -10z"/>
<path d="M3822 921 c-9 -5 -4 -8 16 -7 17 1 28 4 25 9 -6 9 -25 9 -41 -2z"/>
<path d="M1350 910 c-13 -8 -12 -10 3 -10 9 0 17 5 17 10 0 12 -1 12 -20 0z"/>
<path d="M3895 911 c-3 -5 -2 -12 3 -15 5 -3 9 1 9 9 0 17 -3 19 -12 6z"/>
<path d="M1832 897 c-14 -19 -23 -49 -12 -42 6 3 10 14 10 23 1 15 2 15 15 -2
15 -20 50 -33 39 -15 -3 5 -10 6 -16 3 -6 -4 -8 1 -4 14 8 23 -17 38 -32 19z"/>
<path d="M2595 900 c-4 -6 -14 -9 -22 -8 -9 2 -18 -3 -20 -9 -3 -8 4 -13 19
-13 70 -1 70 -1 63 -18 -5 -13 -4 -14 6 -5 9 9 8 18 -5 37 -18 28 -31 32 -41
16z m29 -21 c-3 -5 -10 -7 -15 -3 -5 3 -7 10 -3 15 3 5 10 7 15 3 5 -3 7 -10
3 -15z"/>
<path d="M3675 901 c-3 -5 0 -13 6 -17 8 -5 9 -3 4 6 -6 10 -4 12 9 7 10 -4
15 -3 11 3 -8 13 -22 13 -30 1z"/>
<path d="M1388 893 c7 -3 16 -2 19 1 4 3 -2 6 -13 5 -11 0 -14 -3 -6 -6z"/>
<path d="M2335 890 c-3 -5 -5 -10 -3 -11 33 -8 48 -7 48 4 1 6 7 1 14 -12 11
-19 14 -21 19 -7 3 8 2 18 -4 22 -20 12 -67 15 -74 4z"/>
<path d="M3815 889 c-4 -6 -5 -12 -2 -15 2 -3 7 2 10 11 7 17 1 20 -8 4z"/>
<path d="M2250 881 c0 -10 19 -25 25 -20 1 2 -3 10 -11 17 -8 7 -14 8 -14 3z"/>
<path d="M2502 870 c-7 -12 -8 -20 -2 -20 5 0 10 5 10 11 0 6 7 9 14 6 10 -4
13 -1 9 9 -7 19 -16 18 -31 -6z"/>
<path d="M2805 882 c-15 -11 -16 -29 0 -29 7 0 11 7 7 15 -3 10 -1 13 6 8 7
-4 12 -2 12 3 0 13 -11 14 -25 3z"/>
<path d="M3120 875 c-11 -13 -10 -14 4 -9 9 3 16 10 16 15 0 13 -6 11 -20 -6z"/>
<path d="M3610 879 c0 -5 5 -7 10 -4 6 3 10 8 10 11 0 2 -4 4 -10 4 -5 0 -10
-5 -10 -11z"/>
<path d="M3050 860 c0 -5 5 -10 11 -10 5 0 7 5 4 10 -3 6 -8 10 -11 10 -2 0
-4 -4 -4 -10z"/>
<path d="M3256 862 c-3 -5 1 -9 9 -9 8 0 12 4 9 9 -3 4 -7 8 -9 8 -2 0 -6 -4
-9 -8z"/>
<path d="M3474 848 l-19 -23 25 20 c14 11 27 21 29 22 2 2 0 3 -6 3 -5 0 -18
-10 -29 -22z"/>
<path d="M2090 856 c0 -2 8 -10 18 -17 15 -13 16 -12 3 4 -13 16 -21 21 -21
13z"/>
<path d="M2753 845 c0 -8 4 -12 9 -9 5 3 6 10 3 15 -9 13 -12 11 -12 -6z"/>
<path d="M2890 856 c0 -2 8 -10 18 -17 15 -13 16 -12 3 4 -13 16 -21 21 -21
13z"/>
</g>
</svg>
